<?xml version="1.0" standalone="no"?>
<!DOCTYPE svg PUBLIC "-//W3C//DTD SVG 20010904//EN"
 "http://www.w3.org/TR/2001/REC-SVG-20010904/DTD/svg10.dtd">
<svg version="1.0" xmlns="http://www.w3.org/2000/svg"
 width="900.000000pt" height="600.000000pt" viewBox="0 0 900.000000 600.000000"
 preserveAspectRatio="xMidYMid meet">
<metadata>
Created by potrace 1.10, written by Peter Selinger 2001-2011
</metadata>
<g transform="translate(0.000000,600.000000) scale(0.100000,-0.100000)"
fill="#000000" stroke="none">
<path d="M4296 4337 c-16 -12 -17 -64 -14 -882 4 -771 6 -879 21 -948 17 -79
52 -178 89 -252 126 -254 373 -469 645 -561 129 -44 205 -56 368 -56 170 0
277 17 395 63 30 11 64 23 74 26 10 4 44 20 75 36 257 137 452 359 546 622
146 411 40 884 -265 1192 -145 146 -304 237 -511 294 -115 31 -414 34 -527 5
-57 -14 -73 -23 -77 -40 -3 -11 -4 -115 -3 -231 l3 -210 30 1 c17 1 68 9 115
19 237 50 441 -3 609 -159 162 -152 240 -388 196 -596 -31 -145 -101 -268
-208 -367 -53 -49 -149 -113 -170 -113 -7 0 -17 -4 -22 -9 -6 -5 -44 -18 -86
-30 -174 -48 -377 -14 -528 89 -149 101 -240 241 -274 420 -12 66 -17 185 -22
530 -9 683 -24 1141 -36 1157 -16 18 -397 19 -423 0z"/>
<path d="M3390 3895 c-142 -20 -290 -69 -383 -125 -17 -11 -39 -23 -47 -27
-40 -18 -173 -129 -231 -191 -351 -378 -410 -934 -146 -1372 86 -144 256 -317
372 -380 22 -12 59 -32 81 -44 23 -13 50 -26 60 -29 11 -3 44 -15 74 -26 128
-49 225 -65 405 -64 185 0 263 14 400 68 114 45 255 145 255 181 0 13 -68 149
-90 179 -8 11 -57 100 -90 163 -24 45 -34 50 -65 29 -53 -35 -209 -93 -317
-117 -109 -25 -175 -25 -264 -2 -95 25 -172 65 -250 129 -250 207 -321 499
-189 778 43 90 81 143 160 222 101 100 207 147 377 168 64 8 233 -15 336 -46
35 -10 68 -16 73 -13 13 8 12 461 -2 470 -41 25 -272 64 -374 62 -33 0 -98 -6
-145 -13z"/>
</g>
</svg>
