<?xml version="1.0" encoding="UTF-8"?>
<svg version="1.1" xmlns="http://www.w3.org/2000/svg" width="580" height="387">
<path d="M0 0 C1.20970459 0.00523682 2.41940918 0.01047363 3.66577148 0.01586914 C4.97094727 0.0190918 6.27612305 0.02231445 7.62084961 0.02563477 C9.00952213 0.03399138 10.39819401 0.04245634 11.78686523 0.05102539 C13.17944179 0.05603873 14.57202005 0.06060193 15.96459961 0.06469727 C19.38456394 0.07653105 22.80444367 0.09301659 26.22436523 0.11352539 C27.12044971 5.53715438 27.41060461 10.80713278 27.48974609 16.29907227 C27.51440697 17.63971741 27.51440697 17.63971741 27.53956604 19.00744629 C27.5746788 20.93945601 27.60787738 22.87150127 27.63935661 24.80357361 C27.68990907 27.87480828 27.7466272 30.94587367 27.80506897 34.01696777 C27.97027159 42.74626583 28.12600203 51.47571466 28.27392578 60.20532227 C28.36503062 65.5563096 28.46461805 70.90708742 28.56918526 76.25782776 C28.60707424 78.28286505 28.64178553 80.30796467 28.67307854 82.33311462 C28.91097729 104.12160172 28.91097729 104.12160172 34.22436523 125.11352539 C34.88436523 125.11352539 35.54436523 125.11352539 36.22436523 125.11352539 C36.73999023 125.95915039 37.25561523 126.80477539 37.78686523 127.67602539 C43.10063518 135.97021242 52.05637197 139.9774634 61.17749023 142.69555664 C72.19967573 144.94627009 83.63972355 142.24167286 93.09936523 136.36352539 C102.32413158 129.62690704 107.52580317 121.10298879 110.22436523 110.11352539 C111.44119486 96.36052076 109.14532771 85.0123456 100.22436523 74.11352539 C93.15716966 66.56821088 84.91026268 62.41936964 74.55249023 61.94555664 C73.19317799 61.93096178 71.83375522 61.92474717 70.47436523 61.92602539 C69.76570313 61.92538086 69.05704102 61.92473633 68.3269043 61.92407227 C62.98590028 61.97784897 58.36083805 62.74379931 53.22436523 64.11352539 C51.90436523 64.11352539 50.58436523 64.11352539 49.22436523 64.11352539 C49.22436523 53.55352539 49.22436523 42.99352539 49.22436523 32.11352539 C57.46678577 30.05292026 63.82581505 28.58236322 72.03686523 28.67602539 C72.98609863 28.68359863 73.93533203 28.69117188 74.91333008 28.69897461 C90.83444183 29.06810514 105.08507518 34.42852579 117.38452148 44.59790039 C119.35761756 46.2752315 119.35761756 46.2752315 122.22436523 48.11352539 C122.22436523 48.77352539 122.22436523 49.43352539 122.22436523 50.11352539 C123.70936523 50.60852539 123.70936523 50.60852539 125.22436523 51.11352539 C126.82983398 52.89086914 126.82983398 52.89086914 128.41186523 55.05102539 C128.94166992 55.76129883 129.47147461 56.47157227 130.01733398 57.20336914 C131.22436523 59.11352539 131.22436523 59.11352539 131.22436523 61.11352539 C131.88436523 61.11352539 132.54436523 61.11352539 133.22436523 61.11352539 C142.69614606 81.15950334 148.96885576 102.46523861 142.15014648 124.60180664 C141.69188477 125.84510742 141.69188477 125.84510742 141.22436523 127.11352539 C140.88791992 128.03520508 140.55147461 128.95688477 140.20483398 129.90649414 C138.72584047 133.74523011 137.09734452 137.45081035 135.22436523 141.11352539 C134.56436523 141.11352539 133.90436523 141.11352539 133.22436523 141.11352539 C132.9781543 141.83926758 132.73194336 142.56500977 132.47827148 143.31274414 C127.25547651 154.97861329 112.88795949 166.31001063 101.13647461 170.93530273 C80.33258424 178.58015897 60.35347311 179.90323723 39.53686523 171.30102539 C38.08872475 170.59322639 36.65175962 169.86228139 35.22436523 169.11352539 C33.8437793 168.42709961 33.8437793 168.42709961 32.43530273 167.72680664 C21.80378111 162.05391461 12.51936807 153.45531576 6.22436523 143.11352539 C6.22436523 142.45352539 6.22436523 141.79352539 6.22436523 141.11352539 C5.56436523 141.11352539 4.90436523 141.11352539 4.22436523 141.11352539 C3.26035542 138.615588 2.30308976 136.1153888 1.34936523 133.61352539 C1.07995117 132.91743164 0.81053711 132.22133789 0.53295898 131.50415039 C0.26870117 130.80805664 0.00444336 130.11196289 -0.26782227 129.39477539 C-0.50871582 128.76635742 -0.74960937 128.13793945 -0.99780273 127.49047852 C-3.45354401 119.98605383 -4.06048843 113.44051592 -4.01855469 105.57275391 C-4.02045303 104.4417778 -4.02235138 103.3108017 -4.02430725 102.14555359 C-4.02799587 98.42777455 -4.01734174 94.71019314 -4.00610352 90.99243164 C-4.004911 88.40551273 -4.00445871 85.81859337 -4.00471497 83.23167419 C-4.00315365 77.82255118 -3.99513222 72.41349911 -3.98144531 67.00439453 C-3.96566724 60.74559893 -3.96044927 54.48686482 -3.96118087 48.22805077 C-3.96179014 42.20202641 -3.95658876 36.17602717 -3.94838905 30.15000725 C-3.9451977 27.5858262 -3.9432339 25.02164333 -3.94249535 22.4574604 C-3.94034008 18.88778673 -3.93161533 15.31819201 -3.92089844 11.74853516 C-3.92135162 10.68001312 -3.92180481 9.61149109 -3.92227173 8.5105896 C-3.91800674 7.54473434 -3.91374176 6.57887909 -3.90934753 5.58375549 C-3.90767169 4.73964395 -3.90599585 3.8955324 -3.90426922 3.02584171 C-3.69590081 -0.07182223 -3.13805444 0.12834861 0 0 Z " fill="#0E0E0E" transform="translate(279.775634765625,104.886474609375)"/>
<path d="M0 0 C2.41379616 3.50477158 2.15873523 6.58083678 1.9765625 10.734375 C1.89921875 12.67763672 1.89921875 12.67763672 1.8203125 14.66015625 C1.75544062 16.02344857 1.69033347 17.38672972 1.625 18.75 C1.56672442 20.12886502 1.50942192 21.50777153 1.453125 22.88671875 C1.31165822 26.25834372 1.16024172 29.62922366 1 33 C0.34773438 32.86722656 -0.30453125 32.73445313 -0.9765625 32.59765625 C-16.52376259 29.45611287 -30.4415586 27.40970149 -45 35 C-45.99 35.33 -46.98 35.66 -48 36 C-48 36.66 -48 37.32 -48 38 C-48.7425 38.556875 -49.485 39.11375 -50.25 39.6875 C-53.61244597 42.51501138 -54.98736627 45.12381652 -57 49 C-57.66 49 -58.32 49 -59 49 C-64.00379417 63.11069955 -65.63758898 73.70405784 -60 88 C-54.36393309 99.20361022 -44.91731324 106.13338659 -33.375 110.3125 C-21.12809873 112.94367019 -8.60437888 108.93139005 2.21875 103.3359375 C5 102 5 102 8 102 C9.61328125 104.23828125 9.61328125 104.23828125 11.3125 107.3125 C11.91964844 108.40175781 12.52679688 109.49101562 13.15234375 110.61328125 C14.06693359 112.28970703 14.06693359 112.28970703 15 114 C15.57878906 115.02480469 16.15757812 116.04960937 16.75390625 117.10546875 C21.21938444 125.07876837 21.21938444 125.07876837 22 129 C10.47103085 140.00492509 -5.19232511 145.46067933 -21 146 C-31.38795529 145.75470899 -41.25201658 143.55745372 -51 140 C-52.19625 139.566875 -53.3925 139.13375 -54.625 138.6875 C-61.49871806 135.25064097 -68.21766997 131.08302297 -74 126 C-74 125.34 -74 124.68 -74 124 C-75.485 123.505 -75.485 123.505 -77 123 C-77 122.34 -77 121.68 -77 121 C-77.66 121 -78.32 121 -79 121 C-81.57083887 117.83987565 -83.74030423 114.38709278 -86 111 C-86.46019531 110.36707031 -86.92039063 109.73414063 -87.39453125 109.08203125 C-97.72582021 94.2246538 -99.42711385 75.04823572 -96.76953125 57.70703125 C-95.07335008 49.53608744 -92.15025765 41.71521434 -89 34 C-88.34 34 -87.68 34 -87 34 C-86.67 32.35 -86.34 30.7 -86 29 C-85.34 29 -84.68 29 -84 29 C-83.79503906 28.31421875 -83.59007812 27.6284375 -83.37890625 26.921875 C-76.92152168 13.23880514 -61.54069601 5.33504681 -48.2265625 -0.140625 C-34.03908581 -4.94834135 -13.85764636 -6.75919097 0 0 Z " fill="#0F0F0F" transform="translate(253,137)"/>
<path d="M0 0 C-0.99 0.33 -1.98 0.66 -3 1 C-3.33 10.57 -3.66 20.14 -4 30 C-0.37 29.67 3.26 29.34 7 29 C7 29.33 7 29.66 7 30 C5.58461283 30.33872513 4.16762037 30.67074624 2.75 31 C1.96109375 31.185625 1.1721875 31.37125 0.359375 31.5625 C-2 32 -2 32 -6 32 C-6 21.44 -6 10.88 -6 0 C-3.50907189 -1.24546405 -2.58919267 -0.7767578 0 0 Z " fill="#8F8F8F" transform="translate(335,137)"/>
<path d="M0 0 C-9.77186462 6.51457641 -24.09333955 3.73545393 -35 2 C-35 1.67 -35 1.34 -35 1 C-30.66676008 0.83084529 -26.33339523 0.66512423 -22 0.5 C-20.77925781 0.45230469 -19.55851563 0.40460938 -18.30078125 0.35546875 C-12.19566329 0.12446429 -6.10950384 -0.06109504 0 0 Z " fill="#8F8F8F" transform="translate(250,279)"/>
<path d="M0 0 C0.66 0.33 1.32 0.66 2 1 C0.25 4.875 0.25 4.875 -2 6 C-3.99960012 6.039992 -6.00047242 6.04346799 -8 6 C-5.33333333 4 -2.66666667 2 0 0 Z " fill="#6B6B6B" transform="translate(374,240)"/>
<path d="M0 0 C0.66 0.33 1.32 0.66 2 1 C2 1.99 2 2.98 2 4 C1.34 4 0.68 4 0 4 C0 5.65 0 7.3 0 9 C-0.99 8.67 -1.98 8.34 -3 8 C-3 7.01 -3 6.02 -3 5 C-2.34 5 -1.68 5 -1 5 C-0.67 3.35 -0.34 1.7 0 0 Z " fill="#848484" transform="translate(167,166)"/>
<path d="M0 0 C3.68802044 1.22934015 4.72356973 2.93859378 7 6 C6.67 6.66 6.34 7.32 6 8 C4.125 7.375 4.125 7.375 2 6 C0.75 2.875 0.75 2.875 0 0 Z " fill="#8F8F8F" transform="translate(402,155)"/>
</svg>
